<?xml version="1.0" encoding="UTF-8"?>
<svg version="1.1" xmlns="http://www.w3.org/2000/svg" width="256" height="256">
<path d="M0 0 C64.68 0 129.36 0 196 0 C194.84352756 20.81650391 194.84352756 20.81650391 193.87130737 31.12950134 C193.80033718 31.88667891 193.72936699 32.64385647 193.65624619 33.42397881 C193.58277088 34.20719568 193.50929558 34.99041256 193.43359375 35.79736328 C193.27715676 37.49142429 193.12100724 39.18551187 192.96511841 40.87962341 C192.54662474 45.41848673 192.12408628 49.95696474 191.70067215 54.49537134 C191.2558087 59.27062238 190.81454256 64.04620601 190.37280273 68.82174683 C189.63194352 76.82538251 188.88859799 84.82878403 188.14355469 92.83203125 C187.2836366 102.0694156 186.42691251 111.30709164 185.57204723 120.54494488 C184.65823747 130.41967127 183.74245969 140.29421434 182.82591629 150.16868734 C182.56313985 153.00091613 182.30069051 155.83317508 182.03829956 158.66543961 C181.62585499 163.1160658 181.21206122 167.56656464 180.7972374 172.01696968 C180.64563564 173.64549166 180.49446094 175.27405345 180.34375381 176.90265846 C180.13734393 179.13233156 179.92934253 181.36185082 179.72094727 183.59133911 C179.60517838 184.83634752 179.48940948 186.08135593 179.37013245 187.36409187 C178.97426278 191.25282349 178.49864755 195.1232411 178 199 C170.98039219 201.79026834 163.81705296 203.85716619 156.55078125 205.90625 C155.24808553 206.27571521 153.94544891 206.64538886 152.64286804 207.01525879 C149.92113704 207.78726741 147.19873926 208.5568646 144.47583008 209.32470703 C141.02336725 210.29846821 137.57258821 211.2780462 134.12229633 212.25946808 C131.4331345 213.02369792 128.74310318 213.78483049 126.05281639 214.54508972 C124.17327469 215.07677891 122.29442712 215.61092001 120.41560364 216.1451416 C118.07584814 216.8034596 115.73247637 217.4490811 113.38540649 218.08082581 C111.14309003 218.68963879 108.91009789 219.33398962 106.68856812 220.01475525 C98.22601207 222.39559472 92.31373333 221.59127386 84 219.00390625 C82.8030249 218.65875473 81.6060498 218.31360321 80.37280273 217.95799255 C76.57267257 216.85508743 72.78687706 215.70998716 69 214.5625 C66.49172607 213.82590734 63.98261465 213.0921603 61.47265625 212.36132812 C56.59767568 210.93760858 51.72841058 209.49656607 46.86328125 208.03955078 C39.62368364 205.87633605 32.35875254 203.80701172 25.07836914 201.78553772 C19.10718273 200.10718273 19.10718273 200.10718273 18 199 C17.7559868 197.36992358 17.57495081 195.73039249 17.41845703 194.08959961 C17.26099754 192.47168015 17.26099754 192.47168015 17.10035706 190.82107544 C16.98731735 189.61039398 16.87427765 188.39971252 16.7578125 187.15234375 C16.63361435 185.85851776 16.5094162 184.56469177 16.38145447 183.23165894 C16.03111424 179.5770189 15.68692036 175.92182165 15.34395218 172.26648331 C15.12523662 169.94001696 14.90492883 167.61370711 14.68405151 165.28744507 C13.44086235 152.19304146 12.21795315 139.09677253 11 126 C10.88932945 124.81019028 10.77865891 123.62038055 10.6646347 122.39451599 C8.97773192 104.25345201 7.29984907 86.1115673 5.62960267 67.96896261 C5.18810898 63.17404314 4.74550336 58.37922708 4.30255127 53.58444214 C3.69834834 47.04299785 3.09739659 40.50125984 2.49853706 33.95932388 C2.27461934 31.51766668 2.04978361 29.07609348 1.82398796 26.63460922 C1.51297891 23.26941283 1.20538904 19.90392087 0.89868164 16.53833008 C0.80680635 15.55235305 0.71493107 14.56637602 0.62027168 13.5505209 C0.53784658 12.63821744 0.45542149 11.72591398 0.37049866 10.78596497 C0.2984726 10.00138822 0.22644655 9.21681147 0.15223789 8.40845966 C-0.02460348 5.6107639 0 2.80327924 0 0 Z " fill="#E5A42C" transform="translate(30,17)"/>
<path d="M0 0 C32.67 0 65.34 0 99 0 C104 34 104 34 104 39 C95.75 39 87.5 39 79 39 C79 34.38 79 29.76 79 25 C59.53 25 40.06 25 20 25 C20 31.27 20 37.54 20 44 C19.67 45.98 19.34 47.96 19 50 C47.05 50 75.1 50 104 50 C104 64.34747956 102.9374651 78.11097419 101.16357422 92.32055664 C99.85888522 102.85972229 98.89312878 113.41905085 98 124 C90.82854968 126.48882611 83.5897127 128.50787014 76.25 130.4375 C68.33044141 132.52593168 60.49875303 134.63493202 52.80859375 137.46875 C45.47919815 138.8551169 37.97267568 136.36092508 30.96875 134.3125 C30.05162231 134.04993408 29.13449463 133.78736816 28.1895752 133.5168457 C26.26927196 132.96551936 24.34996739 132.41070359 22.43164062 131.85253906 C19.48278473 130.99499369 16.53079233 130.14900556 13.578125 129.3046875 C11.70814112 128.76629214 9.83834246 128.22725301 7.96875 127.6875 C7.08344604 127.43331299 6.19814209 127.17912598 5.28601074 126.91723633 C4.47426392 126.68029053 3.66251709 126.44334473 2.82617188 126.19921875 C2.10941284 125.99127686 1.39265381 125.78333496 0.6541748 125.5690918 C-1 125 -1 125 -2 124 C-2.58710274 120.02553927 -2.95456652 116.02585135 -3.35717773 112.02880859 C-3.5589128 110.0354455 -3.77057838 108.04309543 -3.98242188 106.05078125 C-4.11326172 104.77589844 -4.24410156 103.50101562 -4.37890625 102.1875 C-4.4982251 101.02605469 -4.61754395 99.86460937 -4.74047852 98.66796875 C-5.03856357 94.45495859 -5 90.22354227 -5 86 C3.25 86 11.5 86 20 86 C20.495 95.405 20.495 95.405 21 105 C22.7325 105.4125 24.465 105.825 26.25 106.25 C31.70299928 107.59713576 36.94137963 109.29249085 42.2109375 111.23046875 C47.34964625 112.64829175 51.24373838 112.18030864 56.125 110.1875 C62.07223551 107.76969865 67.52272932 106.61931767 74 105 C74.99 94.77 75.98 84.54 77 74 C49.61 74 22.22 74 -6 74 C-6 61.61498439 -6 61.61498439 -5.59765625 57.5078125 C-5.51193359 56.61835937 -5.42621094 55.72890625 -5.33789062 54.8125 C-5.24701172 53.925625 -5.15613281 53.03875 -5.0625 52.125 C-4.97548828 51.21492188 -4.88847656 50.30484375 -4.79882812 49.3671875 C-4.4663992 45.99857436 -4.13941937 42.68590257 -3.46484375 39.3671875 C-2.79124924 35.93694991 -2.67354164 32.48368765 -2.5 29 C-2.27866579 24.55692059 -1.87728918 20.3864459 -1 16 C-0.67 10.72 -0.34 5.44 0 0 Z " fill="#F6F6F4" transform="translate(80,58)"/>
<path d="M0 0 C26.4 0 52.8 0 80 0 C79.34 7.26 78.68 14.52 78 22 C77.42984828 29.03852303 76.86406517 36.07714542 76.32275391 43.11791992 C75.62534531 52.15652639 74.82076982 61.16066598 73.68432617 70.15596008 C72.94952996 76.04033394 72.56279483 81.90775387 72.24609375 87.828125 C72 91 72 91 71.5 93.4375 C70.70966306 97.48797682 70.65078965 101.59228704 70.48242188 105.70703125 C70.19559857 111.49761495 69.52943665 117.22934584 68.83244324 122.9818573 C67.72526242 132.16275482 66.80693086 141.36247171 65.875 150.5625 C65.69152705 152.3639446 65.50793389 154.16537696 65.32421875 155.96679688 C64.88143326 160.31105875 64.44025147 164.65548062 64 169 C52.58527071 173.2310257 52.58527071 173.2310257 46.8125 174.8125 C39.11822456 176.95736439 31.45397055 179.19881728 23.7902832 181.45043945 C20.86223485 182.30756477 17.93191728 183.15620864 15 184 C13.49252197 184.43675049 13.49252197 184.43675049 11.95458984 184.88232422 C10.98344238 185.15705566 10.01229492 185.43178711 9.01171875 185.71484375 C8.14377686 185.96226318 7.27583496 186.20968262 6.3815918 186.46459961 C4 187 4 187 0 187 C-0.495 174.625 -0.495 174.625 -1 162 C15.55839296 156.83209392 32.17881706 152.23006992 49 148 C49.17390259 146.18411377 49.17390259 146.18411377 49.35131836 144.33154297 C49.78345696 139.82499112 50.21834661 135.31870821 50.65405273 130.8125 C50.8419741 128.86498078 51.02915694 126.91739014 51.21557617 124.96972656 C51.48420543 122.16452072 51.75552047 119.35958542 52.02734375 116.5546875 C52.1508445 115.25590164 52.1508445 115.25590164 52.27684021 113.93087769 C52.39685143 112.70028122 52.39685143 112.70028122 52.51928711 111.44482422 C52.58812607 110.72978729 52.65696503 110.01475037 52.72789001 109.27804565 C53.05900637 106.50601148 53.54104079 103.75375525 54 101 C54.66 92.09 55.32 83.18 56 74 C27.95 74 -0.1 74 -29 74 C-28.67 65.75 -28.34 57.5 -28 49 C-8.53 49 10.94 49 31 49 C31 53.62 31 58.24 31 63 C39.25 63 47.5 63 56 63 C55.72285156 61.19015625 55.44570312 59.3803125 55.16015625 57.515625 C54.7940636 55.09378132 54.42818987 52.67190453 54.0625 50.25 C53.78889648 48.46916016 53.78889648 48.46916016 53.50976562 46.65234375 C53.24389648 44.88310547 53.24389648 44.88310547 52.97265625 43.078125 C52.81031494 42.00981445 52.64797363 40.94150391 52.48071289 39.84082031 C51.82209719 34.57858455 51.44041438 29.28497257 51 24 C34.17 24 17.34 24 0 24 C0 16.08 0 8.16 0 0 Z " fill="#F0C024" transform="translate(128,34)"/>
<path d="M0 0 C8.25 0 16.5 0 25 0 C25.33 6.27 25.66 12.54 26 19 C27.670625 19.391875 29.34125 19.78375 31.0625 20.1875 C38.53451887 22.04434579 45.71913963 24.50563117 53 27 C53 34.92 53 42.84 53 51 C53.99 51.495 53.99 51.495 55 52 C48.37386607 51.43195019 42.34285973 50.17672398 35.96875 48.3125 C34.59305847 47.91865112 34.59305847 47.91865112 33.1895752 47.5168457 C31.26927196 46.96551936 29.34996739 46.41070359 27.43164062 45.85253906 C24.48278473 44.99499369 21.53079233 44.14900556 18.578125 43.3046875 C16.70814112 42.76629214 14.83834246 42.22725301 12.96875 41.6875 C12.08344604 41.43331299 11.19814209 41.17912598 10.28601074 40.91723633 C9.47426392 40.68029053 8.66251709 40.44334473 7.82617188 40.19921875 C7.10941284 39.99127686 6.39265381 39.78333496 5.6541748 39.5690918 C4 39 4 39 3 38 C2.41289726 34.02553927 2.04543348 30.02585135 1.64282227 26.02880859 C1.4410872 24.0354455 1.22942162 22.04309543 1.01757812 20.05078125 C0.88673828 18.77589844 0.75589844 17.50101563 0.62109375 16.1875 C0.5017749 15.02605469 0.38245605 13.86460937 0.25952148 12.66796875 C-0.03856357 8.45495859 0 4.22354227 0 0 Z " fill="#EEEEEC" transform="translate(75,144)"/>
<path d="M0 0 C16.83 0 33.66 0 51 0 C55.5 28.125 55.5 28.125 56 38 C47.75 38 39.5 38 31 38 C31 33.05 31 28.1 31 23 C20.77 23 10.54 23 0 23 C0 15.41 0 7.82 0 0 Z " fill="#FEFEFD" transform="translate(128,59)"/>
<path d="M0 0 C9.57 0 19.14 0 29 0 C29 11.25 29 11.25 28.5625 15.5703125 C28.42714844 16.94316406 28.42714844 16.94316406 28.2890625 18.34375 C28.14597656 19.72046875 28.14597656 19.72046875 28 21.125 C27.85691406 22.55972656 27.85691406 22.55972656 27.7109375 24.0234375 C27.4783375 26.34943754 27.24130321 28.67488959 27 31 C21.91762709 32.96338909 16.88357782 34.67632455 11.625 36.125 C7.2049981 37.28223763 7.2049981 37.28223763 3 39 C1.45386986 38.91348369 -0.08909387 38.75997364 -1.625 38.5625 C-2.44226563 38.46066406 -3.25953125 38.35882813 -4.1015625 38.25390625 C-4.72804688 38.17011719 -5.35453125 38.08632812 -6 38 C-2.25 36.875 -2.25 36.875 0 38 C0 25.46 0 12.92 0 0 Z " fill="#F0C024" transform="translate(128,132)"/>
<path d="M0 0 C9.24 0 18.48 0 28 0 C28 7.92 28 15.84 28 24 C18.76 24 9.52 24 0 24 C0 16.08 0 8.16 0 0 Z " fill="#E5A42B" transform="translate(100,83)"/>
<path d="M0 0 C64.68 0 129.36 0 196 0 C194.83928571 20.89285714 194.83928571 20.89285714 194 29 C193.67 29 193.34 29 193 29 C192.97217128 26.93758253 192.95324462 24.87504512 192.9375 22.8125 C192.92589844 21.66394531 192.91429687 20.51539062 192.90234375 19.33203125 C193.03280921 13.54458348 193.55601025 7.77186677 194 2 C130.64 2 67.28 2 2 2 C2 6.95 2 11.9 2 17 C1.67 17 1.34 17 1 17 C0.67 11.39 0.34 5.78 0 0 Z " fill="#DEAA4D" transform="translate(30,17)"/>
<path d="M0 0 C0.33 0 0.66 0 1 0 C1.17987261 7.88816363 0.47361315 15.59647118 -0.3125 23.44140625 C-0.44740084 24.81856132 -0.5819158 26.19575424 -0.71606445 27.57298279 C-1.06733132 31.16864939 -1.42378099 34.76378327 -1.78137207 38.35882568 C-2.14648803 42.03903555 -2.50661771 45.71973307 -2.8671875 49.40039062 C-3.5732902 56.60074239 -4.28487779 63.80053783 -5 71 C-6.98 71.495 -6.98 71.495 -9 72 C-8.690625 71.14792969 -8.38125 70.29585938 -8.0625 69.41796875 C-4.52722965 58.04531598 -4.63326036 45.26802291 -3.82470703 33.46679688 C-3.01933831 22.24501202 -1.61167029 11.13150635 0 0 Z " fill="#E1B25A" transform="translate(213,145)"/>
<path d="M0 0 C2.7667355 4.5881697 2.82989272 9.66389996 3.4375 14.8828125 C3.71041611 18.09061461 3.71041611 18.09061461 6 20 C4.35 19.67 2.7 19.34 1 19 C0.03794912 12.62641289 -0.10655578 6.44070471 0 0 Z " fill="#E0AC4D" transform="translate(47,197)"/>
<path d="M0 0 C0.33 0 0.66 0 1 0 C1 4.29 1 8.58 1 13 C-0.32 13.33 -1.64 13.66 -3 14 C-2.5359375 12.7625 -2.5359375 12.7625 -2.0625 11.5 C-0.88122417 7.60873845 -0.41775832 4.03833047 0 0 Z " fill="#E0AA47" transform="translate(207,203)"/>
</svg>
