<?xml version="1.0" encoding="UTF-8"?>
<svg version="1.1" xmlns="http://www.w3.org/2000/svg" width="205" height="205">
<path d="M0 0 C2.74236926 2.05677695 3.8258623 3.34759426 4.71362305 6.67358398 C5.05005914 10.58146277 4.35258058 13.80427156 3.33203125 17.53515625 C3.04618416 18.63639832 3.04618416 18.63639832 2.75456238 19.7598877 C2.11869286 22.1972686 1.46570196 24.62971192 0.8125 27.0625 C0.3564363 28.79588357 -0.09862036 30.52953237 -0.55273438 32.26342773 C-1.76970213 36.89610042 -3.00211231 41.52451874 -4.23919678 46.15185547 C-4.99347847 48.97558598 -5.7446331 51.80012835 -6.49462891 54.625 C-8.74997179 63.11951622 -11.01203452 71.61219124 -13.28564453 80.10183716 C-16.32625964 91.45550084 -19.32921307 102.81865242 -22.3125 114.1875 C-25.92454155 127.94352046 -29.55566825 141.69370026 -33.29785156 155.41503906 C-33.94372624 157.79282802 -34.57852887 160.17329042 -35.2109375 162.5546875 C-35.55382812 163.81539062 -35.89671875 165.07609375 -36.25 166.375 C-36.52328125 167.39335937 -36.7965625 168.41171875 -37.078125 169.4609375 C-38.06136327 172.16900902 -38.9929078 173.93165851 -41 176 C-43.99860588 177.12868873 -46.81937745 177.31193496 -50 177 C-53.0625 175.0625 -53.0625 175.0625 -55 172 C-55.7326094 164.61427496 -53.62419603 158.16944745 -51.5625 151.125 C-51.01328387 149.1926186 -50.46412522 147.26021968 -49.91744995 145.32711792 C-49.53434816 143.97258605 -49.1501543 142.61836262 -48.7649231 141.26443481 C-46.5818454 133.57641134 -44.53642538 125.85292225 -42.5 118.125 C-42.31313629 117.41772766 -42.12627258 116.71045532 -41.93374634 115.98175049 C-38.9901685 104.8398911 -36.1080671 93.68265733 -33.24172974 82.52072144 C-31.19041962 74.53790916 -29.09677801 66.57249955 -26.86010742 58.63964844 C-25.35712422 53.30821738 -23.90335424 47.96464815 -22.46655273 42.61499023 C-21.86699396 40.3833622 -21.26496868 38.15239527 -20.66040039 35.92211914 C-19.18965458 30.48783124 -17.75323611 25.04939674 -16.39453125 19.5859375 C-16.13792725 18.58014648 -15.88132324 17.57435547 -15.61694336 16.53808594 C-15.13521598 14.6466838 -14.66772012 12.75157873 -14.21704102 10.85253906 C-12.88626977 5.7021159 -11.78977123 2.86162051 -7 0 C-4.23382717 -1.38308641 -2.92591209 -0.90563946 0 0 Z " fill="#FFFFFF" transform="translate(127,19)"/>
<path d="M0 0 C2.5 2.125 2.5 2.125 4 5 C4.07387014 9.13672777 3.74886543 11.18638304 0.921875 14.2578125 C-0.04621867 15.17808405 -1.02091614 16.09142976 -2 17 C-2.58724854 17.55848633 -3.17449707 18.11697266 -3.77954102 18.69238281 C-5.78257415 20.59520087 -7.7964321 22.48600317 -9.8125 24.375 C-10.48603516 25.00921875 -11.15957031 25.6434375 -11.85351562 26.296875 C-15.93054346 30.12030781 -20.07225889 33.84933848 -24.3059082 37.4987793 C-25.71871922 38.75074283 -27.05763403 40.08546651 -28.375 41.4375 C-30 43 -30 43 -32 43 C-32.2475 43.53625 -32.495 44.0725 -32.75 44.625 C-34 47 -34 47 -36.1875 49.8125 C-38.27747762 52.89613332 -38.27747762 52.89613332 -38.0625 56.5 C-36.76149683 60.78565751 -34.98358364 62.71040778 -32 66 C-32 66.66 -32 67.32 -32 68 C-31.41734375 68.25394531 -30.8346875 68.50789063 -30.234375 68.76953125 C-27.75811967 70.13320333 -26.19479374 71.64225203 -24.25 73.6875 C-21.02954894 76.99098295 -17.70860646 80.06473998 -14.21484375 83.07421875 C-9.73734048 86.96735651 -5.3511489 90.96640389 -1 95 C-0.25234375 95.68835938 0.4953125 96.37671875 1.265625 97.0859375 C3.86229525 99.95163214 4 102.19409948 4 106 C2.23358828 108.80189446 0.96950178 110.51524911 -2 112 C-5.74493897 112.42544187 -7.51684931 112.303086 -10.74609375 110.27734375 C-11.63425781 109.50519531 -12.52242187 108.73304687 -13.4375 107.9375 C-14.39140625 107.11378906 -15.3453125 106.29007812 -16.328125 105.44140625 C-19.07855001 102.9282255 -21.73399134 100.36036813 -24.32421875 97.68359375 C-28.00992458 93.98070514 -32.03608285 90.62171946 -36.0625 87.296875 C-36.701875 86.76578125 -37.34125 86.2346875 -38 85.6875 C-38.86625 84.98173828 -38.86625 84.98173828 -39.75 84.26171875 C-41 83 -41 83 -41 81 C-41.99 80.67 -42.98 80.34 -44 80 C-50.67470187 73.2156521 -55.95411124 65.20658448 -56.5 55.5 C-55.90331176 45.19356682 -50.06127908 37.17033359 -43 30 C-42.34 30 -41.68 30 -41 30 C-40.7628125 29.42636719 -40.525625 28.85273437 -40.28125 28.26171875 C-38.72059331 25.50677904 -36.88950019 23.88818925 -34.5 21.8125 C-33.15421875 20.63300781 -33.15421875 20.63300781 -31.78125 19.4296875 C-30.8634375 18.62789062 -29.945625 17.82609375 -29 17 C-27.33166784 15.48099387 -25.66496039 13.96020112 -24 12.4375 C-8.03199522 -1.93875747 -8.03199522 -1.93875747 0 0 Z " fill="#FFFFFF" transform="translate(64,18)"/>
<path d="M0 0 C2.59765625 1.51171875 2.59765625 1.51171875 5.0625 3.6875 C5.99835938 4.50347656 6.93421875 5.31945312 7.8984375 6.16015625 C8.93506357 7.10373455 9.96875947 8.0505388 11 9 C11.57266602 9.5244873 12.14533203 10.04897461 12.73535156 10.58935547 C15.75973877 13.36730507 18.76514087 16.16449744 21.7578125 18.9765625 C24.31378685 21.37288084 26.91121153 23.70888657 29.5625 26 C32.51444266 28.5583503 35.36205399 31.11474656 38 34 C38 34.66 38 35.32 38 36 C38.66 36 39.32 36 40 36 C45.66750937 42.79177074 48.5121747 49.881514 48.2421875 58.74609375 C46.51482041 74.82175196 28.63543124 88.48146667 17.03515625 98.24609375 C15.31742686 99.72644019 13.65351571 101.23853688 11.99609375 102.78515625 C11.46072998 103.28370117 10.92536621 103.78224609 10.3737793 104.29589844 C9.31594848 105.28390701 8.26125315 106.27528677 7.21020508 107.27050781 C3.28226978 110.9274838 0.93557796 113.03456389 -4.5 112.9375 C-8 112 -8 112 -10.5 109.875 C-12.5147975 106.01330479 -12.25674722 104.13987321 -11 100 C-8.8125 97.4375 -8.8125 97.4375 -6 95 C-4.93228188 93.9008784 -3.86980926 92.79663814 -2.8125 91.6875 C0 89 0 89 2 89 C2 88.34 2 87.68 2 87 C3.29296875 85.6953125 3.29296875 85.6953125 5.1875 84.125 C20.14506245 72.58214902 20.14506245 72.58214902 30.125 57.4375 C29.9645596 53.025389 28.77125655 51.4107773 26 48 C25.56300781 47.44441406 25.12601563 46.88882813 24.67578125 46.31640625 C21.54801041 42.46881965 18.1068831 39.22309597 14.3359375 36.015625 C11.50169217 33.57002201 8.7502746 31.03891329 6 28.5 C2.54920864 25.31506979 -0.92951511 22.1758994 -4.5 19.125 C-10.23163476 14.07541781 -10.23163476 14.07541781 -12 11 C-12 7.07983866 -11.55226285 4.82839428 -9.375 1.5625 C-6.06940564 -0.61223313 -3.9034669 -0.34919193 0 0 Z " fill="#FFFFFF" transform="translate(148,83)"/>
</svg>
