<?xml version="1.0" encoding="UTF-8"?>
<svg version="1.1" xmlns="http://www.w3.org/2000/svg" width="205" height="205">
<path d="M0 0 C2.31365174 3.62472106 2.22544507 5.34820227 1.65917969 9.49731445 C0.1374646 14.23253931 -3.48790022 17.20345897 -7.0625 20.5 C-8.1752832 21.5837793 -8.1752832 21.5837793 -9.31054688 22.68945312 C-14.78698557 27.9375 -14.78698557 27.9375 -17.125 27.9375 C-17.351875 28.494375 -17.57875 29.05125 -17.8125 29.625 C-19.47802319 32.55949324 -21.74721176 34.55971176 -24.125 36.9375 C-25.18640282 40.12170845 -25.08392549 41.02209109 -24.34765625 44.16796875 C-24.16396484 44.97041016 -23.98027344 45.77285156 -23.79101562 46.59960938 C-23.59185547 47.43298828 -23.39269531 48.26636719 -23.1875 49.125 C-22.99220703 49.96998047 -22.79691406 50.81496094 -22.59570312 51.68554688 C-22.11258736 53.771193 -21.61972096 55.85457614 -21.125 57.9375 C-19.02489202 58.419492 -16.92174432 58.89037681 -14.80859375 59.31152344 C-12.125 59.9375 -12.125 59.9375 -9.53515625 60.94628906 C-6.40801322 61.98293009 -4.40930077 62.37033169 -1.125 61.9375 C3.91266014 58.51176687 7.80752251 54.18730459 11.875 49.6875 C13.00073615 48.4879026 14.1296196 47.29125053 15.26171875 46.09765625 C16.85496429 44.4176469 18.44227592 42.7349367 20.00561523 41.02703857 C25.44783121 35.09262704 25.44783121 35.09262704 29.75 34.625 C33.36562332 34.98656233 34.99197258 35.74957142 37.875 37.9375 C39.51296603 41.77864569 40.12144139 45.83937987 40.875 49.9375 C41.04257813 50.67226563 41.21015625 51.40703125 41.3828125 52.1640625 C43.62542284 64.52227692 38.52943041 79.51638027 32.0546875 89.83984375 C22.17113287 103.96751301 9.02143859 114.25395549 -8.125 117.9375 C-11.22729492 117.78900146 -11.22729492 117.78900146 -14.33642578 117.29980469 C-23.30842091 115.90097031 -32.16344506 115.00876728 -39.97546387 120.3112793 C-49.30631788 127.43676373 -57.18479858 136.39220638 -65.04803467 145.05450439 C-68.31252123 148.62174782 -71.6538818 152.11526157 -74.9921875 155.61328125 C-78.74397757 159.54792308 -82.48771956 163.48700305 -86.16793823 167.48883057 C-86.72697342 168.09370804 -87.28600861 168.69858551 -87.86198425 169.3217926 C-88.89495095 170.44162542 -89.92317054 171.56586672 -90.94529724 172.69560242 C-97.54107082 179.82724548 -104.78836015 182.85227805 -114.125 184.9375 C-117.875 184.875 -117.875 184.875 -121.125 183.9375 C-121.85332031 183.73640625 -122.58164063 183.5353125 -123.33203125 183.328125 C-132.81121701 180.49851731 -139.06548134 175.11606359 -144.45703125 166.91015625 C-148.33877969 159.54443571 -148.24199732 151.18220929 -146.53515625 143.16796875 C-142.64757736 131.79187384 -131.95544188 123.75341065 -123.35804558 115.82894707 C-119.7540902 112.48455672 -116.20807613 109.07850747 -112.65479183 105.68046474 C-109.55805046 102.72525473 -106.44249086 99.79722575 -103.2746582 96.91821289 C-87.65040807 83.7648338 -87.65040807 83.7648338 -79.5456543 65.90380859 C-79.34095724 60.63105761 -79.88747541 55.61418238 -80.79145813 50.42604065 C-82.15006941 40.28950396 -76.499736 30.11373933 -71.125 21.9375 C-68.33390257 18.3672623 -65.35384193 15.11426384 -62.125 11.9375 C-61.26261719 11.07705078 -61.26261719 11.07705078 -60.3828125 10.19921875 C-46.42936953 -2.7193995 -17.16138762 -11.32651583 0 0 Z M-52.125 25.9375 C-60.78836926 35.46232999 -64.90132402 46.98881004 -64.43359375 59.7734375 C-64.05200899 63.68588882 -63.18613699 67.15719947 -62.125 70.9375 C-61.4375 74.3125 -61.4375 74.3125 -62.125 77.9375 C-67.91247549 85.48226815 -75.13189789 92.06942309 -81.875 98.75 C-82.79410156 99.66458984 -83.71320313 100.57917969 -84.66015625 101.52148438 C-86.36308082 103.21578342 -88.06704187 104.90904194 -89.77246094 106.60083008 C-92.22896815 109.04076683 -94.67791037 111.48812099 -97.125 113.9375 C-113.53125 130.34375 -113.53125 130.34375 -115.3972168 132.20922852 C-116.9079089 133.72034755 -118.41698146 135.23308531 -119.92578125 136.74609375 C-121.53556129 138.35015522 -123.16778275 139.93178122 -124.8125 141.5 C-128.27788723 145.15270545 -129.4142295 147.84081517 -129.4375 152.875 C-129.3204084 157.07180928 -129.10339422 159.77295614 -126.125 162.9375 C-122.36153686 165.58209572 -119.24795602 166.89739443 -114.625 167.0625 C-105.10785203 164.00341672 -98.17794817 155.20641909 -91.35079575 148.25249481 C-89.39659221 146.26318518 -87.43510453 144.28132515 -85.47146606 142.30133057 C-79.89465895 136.67588151 -74.32946048 131.0390498 -68.77294922 125.39355469 C-65.36170989 121.92871395 -61.94075999 118.47370943 -58.51367569 115.02454376 C-57.21413434 113.71261021 -55.91839725 112.39689672 -54.62661362 111.07732391 C-52.82248444 109.23469788 -51.00630634 107.40478507 -49.18701172 105.57714844 C-48.66010742 105.03272095 -48.13320312 104.48829346 -47.59033203 103.92736816 C-44.33597738 100.68993843 -41.61856787 98.94188339 -37.125 97.9375 C-34.7734375 98.3984375 -34.7734375 98.3984375 -32.5 99.3125 C-22.55031519 102.64393408 -11.9163143 101.41064545 -2.125 97.9375 C1.56146591 95.96651822 4.69883078 93.64594567 7.875 90.9375 C8.6071875 90.31617187 9.339375 89.69484375 10.09375 89.0546875 C16.89358934 82.78767139 20.99258241 74.97310445 22.875 65.9375 C22.545 65.2775 22.215 64.6175 21.875 63.9375 C21.40078613 64.41695068 20.92657227 64.89640137 20.43798828 65.39038086 C18.29459665 67.55451838 16.1473561 69.71479647 14 71.875 C13.25363281 72.62974609 12.50726563 73.38449219 11.73828125 74.16210938 C10.66513672 75.24008789 10.66513672 75.24008789 9.5703125 76.33984375 C8.91047363 77.00491943 8.25063477 77.66999512 7.57080078 78.35522461 C5.73591806 80.0672711 4.65861522 80.91301202 2.125 80.9921875 C-6.22960942 80.32497911 -14.10954087 77.91953706 -22.10644531 75.53662109 C-23.79294502 75.03605623 -25.48564678 74.5564493 -27.1796875 74.08203125 C-31.53912287 72.78849387 -33.77367516 71.82958714 -36.125 67.9375 C-37.59615499 63.76077641 -38.69645681 59.48320394 -39.82421875 55.20288086 C-40.3716627 53.13759032 -40.94264903 51.07981686 -41.515625 49.02148438 C-41.87124537 47.69570158 -42.22545819 46.36954027 -42.578125 45.04296875 C-42.89942383 43.84824951 -43.22072266 42.65353027 -43.55175781 41.42260742 C-44.30762606 36.82719889 -44.42599586 32.84255398 -41.72631836 28.8894043 C-40.85438843 28.08369995 -40.85438843 28.08369995 -39.96484375 27.26171875 C-39.0222168 26.36163086 -39.0222168 26.36163086 -38.06054688 25.44335938 C-37.40119141 24.84330078 -36.74183594 24.24324219 -36.0625 23.625 C-34.75511324 22.40401003 -33.45150911 21.17895287 -32.15234375 19.94921875 C-31.57218506 19.41772217 -30.99202637 18.88622559 -30.39428711 18.33862305 C-28.90120673 17.00555633 -28.90120673 17.00555633 -29.125 14.9375 C-38.30986919 14.9375 -45.4160227 20.06087713 -52.125 25.9375 Z " fill="#FFFFFF" transform="translate(155.125,12.0625)"/>
</svg>
