<svg width="128" height="128" viewBox="0 0 128 128" fill="none" xmlns="http://www.w3.org/2000/svg">
<g clip-path="url(#clip0_5_9)">
<rect width="128" height="128" rx="24" fill="black"/>
<path d="M32.9062 95.375C32.6562 95.125 32.5312 94.5938 32.5312 93.7812C32.5312 92.5312 32.6562 91.9062 32.9062 91.9062C33.4062 91.9062 34.125 91.8125 35.0625 91.625C36 91.4375 36.875 91.1875 37.6875 90.875C38.5 90.5 38.9688 90.1562 39.0938 89.8438C39.4688 88.4062 39.6562 85.6562 39.6562 81.5938V46.1562C39.6562 42.6562 39.4688 40.2188 39.0938 38.8438C38.9688 38.4688 38.4688 38.0938 37.5938 37.7188C36.7812 37.2812 35.9062 36.9375 34.9688 36.6875C34.0312 36.375 33.3125 36.2188 32.8125 36.2188C32.5625 36.2188 32.4375 35.6562 32.4375 34.5312C32.4375 33.5312 32.5312 32.9375 32.7188 32.75C35.2188 32.875 37.5938 33 39.8438 33.125C42.1562 33.1875 44.375 33.2188 46.5 33.2188H62.8125C67.875 33.2188 72.4062 34.0312 76.4062 35.6562C80.4688 37.2812 83.9062 39.5 86.7188 42.3125C89.5312 45.125 91.6562 48.3438 93.0938 51.9688C94.5938 55.5938 95.3438 59.4375 95.3438 63.5C95.3438 69.5 94.0312 74.9062 91.4062 79.7188C88.7812 84.4688 85.0312 88.25 80.1562 91.0625C75.2812 93.875 69.4688 95.2812 62.7188 95.2812C62.0938 95.2812 61.1562 95.25 59.9062 95.1875C58.7188 95.1875 57.2188 95.1562 55.4062 95.0938C53.5938 94.9688 51.9375 94.875 50.4375 94.8125C48.9375 94.75 47.6562 94.75 46.5938 94.8125L32.9062 95.375ZM64.2188 90.0312C69.4688 90.0312 73.5312 87.7812 76.4062 83.2812C79.2812 78.7812 80.7188 72.0625 80.7188 63.125C80.7188 58.5 80.0312 54.3438 78.6562 50.6562C77.2812 46.9062 75.3125 43.9375 72.75 41.75C70.25 39.5625 67.1875 38.4688 63.5625 38.4688H63.0938C57.7812 38.4688 54.75 38.9688 54 39.9688C53.1875 41.0312 52.7812 43 52.7812 45.875V82.25C52.7812 86.3125 53.0625 88.5 53.625 88.8125C55 89.625 58.5312 90.0312 64.2188 90.0312Z" fill="white"/>
</g>
<defs>
<clipPath id="clip0_5_9">
<rect width="128" height="128" rx="24" fill="white"/>
</clipPath>
</defs>
</svg>
